<mxfile host="app.diagrams.net" agent="Mozilla/5.0 (Windows NT 10.0; Win64; x64) AppleWebKit/537.36 (KHTML, like Gecko) Chrome/136.0.0.0 Safari/537.36" version="27.0.3">
  <diagram name="Page-1" id="irjqKOxyHronLokpZ-el">
    <mxGraphModel dx="872" dy="517" grid="1" gridSize="10" guides="1" tooltips="1" connect="1" arrows="1" fold="1" page="1" pageScale="1" pageWidth="850" pageHeight="1100" math="0" shadow="0">
      <root>
        <mxCell id="0" />
        <mxCell id="1" parent="0" />
        <mxCell id="MuTLfZQ6OHPkuraLgBAG-33" style="edgeStyle=orthogonalEdgeStyle;rounded=0;orthogonalLoop=1;jettySize=auto;html=1;" edge="1" parent="1" source="MuTLfZQ6OHPkuraLgBAG-1">
          <mxGeometry relative="1" as="geometry">
            <mxPoint x="700" y="360" as="targetPoint" />
          </mxGeometry>
        </mxCell>
        <mxCell id="MuTLfZQ6OHPkuraLgBAG-1" value="Guest" style="whiteSpace=wrap;html=1;aspect=fixed;" vertex="1" parent="1">
          <mxGeometry x="600" y="40" width="120" height="120" as="geometry" />
        </mxCell>
        <mxCell id="MuTLfZQ6OHPkuraLgBAG-25" style="edgeStyle=orthogonalEdgeStyle;rounded=0;orthogonalLoop=1;jettySize=auto;html=1;" edge="1" parent="1" source="MuTLfZQ6OHPkuraLgBAG-2" target="MuTLfZQ6OHPkuraLgBAG-5">
          <mxGeometry relative="1" as="geometry" />
        </mxCell>
        <mxCell id="MuTLfZQ6OHPkuraLgBAG-2" value="Host" style="whiteSpace=wrap;html=1;aspect=fixed;" vertex="1" parent="1">
          <mxGeometry x="180" y="140" width="70" height="70" as="geometry" />
        </mxCell>
        <mxCell id="MuTLfZQ6OHPkuraLgBAG-32" style="edgeStyle=orthogonalEdgeStyle;rounded=0;orthogonalLoop=1;jettySize=auto;html=1;entryX=0.75;entryY=0;entryDx=0;entryDy=0;" edge="1" parent="1" source="MuTLfZQ6OHPkuraLgBAG-3" target="MuTLfZQ6OHPkuraLgBAG-11">
          <mxGeometry relative="1" as="geometry" />
        </mxCell>
        <mxCell id="MuTLfZQ6OHPkuraLgBAG-3" value="Book Property" style="ellipse;whiteSpace=wrap;html=1;" vertex="1" parent="1">
          <mxGeometry x="480" y="230" width="120" height="80" as="geometry" />
        </mxCell>
        <mxCell id="MuTLfZQ6OHPkuraLgBAG-34" style="edgeStyle=orthogonalEdgeStyle;rounded=0;orthogonalLoop=1;jettySize=auto;html=1;entryX=0;entryY=0.75;entryDx=0;entryDy=0;" edge="1" parent="1" source="MuTLfZQ6OHPkuraLgBAG-4" target="MuTLfZQ6OHPkuraLgBAG-12">
          <mxGeometry relative="1" as="geometry" />
        </mxCell>
        <mxCell id="MuTLfZQ6OHPkuraLgBAG-4" value="Make Payment" style="ellipse;whiteSpace=wrap;html=1;" vertex="1" parent="1">
          <mxGeometry x="640" y="360" width="120" height="80" as="geometry" />
        </mxCell>
        <mxCell id="MuTLfZQ6OHPkuraLgBAG-24" style="edgeStyle=orthogonalEdgeStyle;rounded=0;orthogonalLoop=1;jettySize=auto;html=1;entryX=0.25;entryY=0;entryDx=0;entryDy=0;" edge="1" parent="1" source="MuTLfZQ6OHPkuraLgBAG-5" target="MuTLfZQ6OHPkuraLgBAG-9">
          <mxGeometry relative="1" as="geometry" />
        </mxCell>
        <mxCell id="MuTLfZQ6OHPkuraLgBAG-5" value="List property" style="ellipse;whiteSpace=wrap;html=1;" vertex="1" parent="1">
          <mxGeometry x="40" y="270" width="120" height="80" as="geometry" />
        </mxCell>
        <mxCell id="MuTLfZQ6OHPkuraLgBAG-30" style="edgeStyle=orthogonalEdgeStyle;rounded=0;orthogonalLoop=1;jettySize=auto;html=1;" edge="1" parent="1" source="MuTLfZQ6OHPkuraLgBAG-6" target="MuTLfZQ6OHPkuraLgBAG-10">
          <mxGeometry relative="1" as="geometry" />
        </mxCell>
        <mxCell id="MuTLfZQ6OHPkuraLgBAG-6" value="Register/Login" style="ellipse;whiteSpace=wrap;html=1;" vertex="1" parent="1">
          <mxGeometry x="380" y="110" width="120" height="80" as="geometry" />
        </mxCell>
        <mxCell id="MuTLfZQ6OHPkuraLgBAG-7" value="Search properties" style="ellipse;whiteSpace=wrap;html=1;" vertex="1" parent="1">
          <mxGeometry x="750" y="170" width="120" height="80" as="geometry" />
        </mxCell>
        <mxCell id="MuTLfZQ6OHPkuraLgBAG-28" style="edgeStyle=orthogonalEdgeStyle;rounded=0;orthogonalLoop=1;jettySize=auto;html=1;entryX=0;entryY=0.5;entryDx=0;entryDy=0;" edge="1" parent="1" source="MuTLfZQ6OHPkuraLgBAG-8" target="MuTLfZQ6OHPkuraLgBAG-11">
          <mxGeometry relative="1" as="geometry" />
        </mxCell>
        <mxCell id="MuTLfZQ6OHPkuraLgBAG-8" value="Manage Booking" style="ellipse;whiteSpace=wrap;html=1;" vertex="1" parent="1">
          <mxGeometry x="180" y="280" width="120" height="80" as="geometry" />
        </mxCell>
        <mxCell id="MuTLfZQ6OHPkuraLgBAG-9" value="Properties DB" style="rounded=0;whiteSpace=wrap;html=1;" vertex="1" parent="1">
          <mxGeometry x="70" y="430" width="120" height="60" as="geometry" />
        </mxCell>
        <mxCell id="MuTLfZQ6OHPkuraLgBAG-10" value="Users&amp;nbsp; DB" style="rounded=0;whiteSpace=wrap;html=1;" vertex="1" parent="1">
          <mxGeometry x="270" y="20" width="120" height="60" as="geometry" />
        </mxCell>
        <mxCell id="MuTLfZQ6OHPkuraLgBAG-11" value="Booking DB" style="rounded=0;whiteSpace=wrap;html=1;" vertex="1" parent="1">
          <mxGeometry x="270" y="430" width="120" height="60" as="geometry" />
        </mxCell>
        <mxCell id="MuTLfZQ6OHPkuraLgBAG-12" value="Payment DB" style="rounded=0;whiteSpace=wrap;html=1;" vertex="1" parent="1">
          <mxGeometry x="750" y="470" width="120" height="60" as="geometry" />
        </mxCell>
        <mxCell id="MuTLfZQ6OHPkuraLgBAG-14" value="Reviews DB" style="rounded=0;whiteSpace=wrap;html=1;" vertex="1" parent="1">
          <mxGeometry x="460" y="430" width="120" height="60" as="geometry" />
        </mxCell>
        <mxCell id="MuTLfZQ6OHPkuraLgBAG-20" style="edgeStyle=orthogonalEdgeStyle;rounded=0;orthogonalLoop=1;jettySize=auto;html=1;entryX=0;entryY=0.65;entryDx=0;entryDy=0;entryPerimeter=0;" edge="1" parent="1" source="MuTLfZQ6OHPkuraLgBAG-2" target="MuTLfZQ6OHPkuraLgBAG-6">
          <mxGeometry relative="1" as="geometry" />
        </mxCell>
        <mxCell id="MuTLfZQ6OHPkuraLgBAG-21" style="edgeStyle=orthogonalEdgeStyle;rounded=0;orthogonalLoop=1;jettySize=auto;html=1;entryX=0.958;entryY=0.313;entryDx=0;entryDy=0;entryPerimeter=0;" edge="1" parent="1" source="MuTLfZQ6OHPkuraLgBAG-1" target="MuTLfZQ6OHPkuraLgBAG-6">
          <mxGeometry relative="1" as="geometry" />
        </mxCell>
        <mxCell id="MuTLfZQ6OHPkuraLgBAG-27" style="edgeStyle=orthogonalEdgeStyle;rounded=0;orthogonalLoop=1;jettySize=auto;html=1;entryX=0.283;entryY=0.1;entryDx=0;entryDy=0;entryPerimeter=0;" edge="1" parent="1" source="MuTLfZQ6OHPkuraLgBAG-2" target="MuTLfZQ6OHPkuraLgBAG-8">
          <mxGeometry relative="1" as="geometry" />
        </mxCell>
        <mxCell id="MuTLfZQ6OHPkuraLgBAG-29" style="edgeStyle=orthogonalEdgeStyle;rounded=0;orthogonalLoop=1;jettySize=auto;html=1;entryX=0.783;entryY=0.05;entryDx=0;entryDy=0;entryPerimeter=0;" edge="1" parent="1">
          <mxGeometry relative="1" as="geometry">
            <mxPoint x="700" y="110" as="sourcePoint" />
            <mxPoint x="823.96" y="174" as="targetPoint" />
          </mxGeometry>
        </mxCell>
        <mxCell id="MuTLfZQ6OHPkuraLgBAG-31" style="edgeStyle=orthogonalEdgeStyle;rounded=0;orthogonalLoop=1;jettySize=auto;html=1;entryX=1;entryY=0.375;entryDx=0;entryDy=0;entryPerimeter=0;" edge="1" parent="1" source="MuTLfZQ6OHPkuraLgBAG-1" target="MuTLfZQ6OHPkuraLgBAG-3">
          <mxGeometry relative="1" as="geometry" />
        </mxCell>
      </root>
    </mxGraphModel>
  </diagram>
</mxfile>
